<?xml version="1.0" encoding="utf-8"?>
<!-- Generator: Adobe Illustrator 28.1.0, SVG Export Plug-In . SVG Version: 6.00 Build 0)  -->
<svg version="1.1" id="_x32_" xmlns="http://www.w3.org/2000/svg" xmlns:xlink="http://www.w3.org/1999/xlink" x="0px" y="0px"
	 viewBox="0 0 512 512" style="enable-background:new 0 0 512 512;" xml:space="preserve">
<style type="text/css">
	.st0{fill:#D8D8D8;}
</style>
<g>
	<path class="st0" d="M78,78v434h434V78H78z M473,473H117V117h356V473z"/>
	<path class="st0" d="M142.2,404.7h305.7c3.1,0,5.9-1.7,7.3-4.4c1.4-2.7,1.3-6-0.4-8.5l-94.9-143.7c-3.8-5.8-10.3-9.3-17.3-9.3
		c-7,0-13.5,3.5-17.3,9.4l-66.8,101.7l-36.9-41.8c-4.3-4.8-10.6-7.4-17-7c-6.5,0.5-12.3,3.9-15.9,9.3l-53.5,81.5
		c-1.7,2.6-1.8,5.8-0.4,8.5C136.3,403,139.1,404.7,142.2,404.7z"/>
	<path class="st0" d="M220.1,269.4c23.2,0,42.1-18.8,42.1-42.1s-18.8-42.1-42.1-42.1S178,204.1,178,227.3S196.8,269.4,220.1,269.4z"
		/>
	<polygon class="st0" points="434,39 434,0 0,0 0,434 39,434 39,395 39,39 395,39 	"/>
</g>
</svg>
