<?xml version="1.0" encoding="utf-8"?>
<!-- Generator: Adobe Illustrator 28.1.0, SVG Export Plug-In . SVG Version: 6.00 Build 0)  -->
<svg version="1.1" id="_x32_" xmlns="http://www.w3.org/2000/svg" xmlns:xlink="http://www.w3.org/1999/xlink" x="0px" y="0px"
	 viewBox="0 0 512 512" style="enable-background:new 0 0 512 512;" xml:space="preserve">
<style type="text/css">
	.st0{fill:#D8D8D8;}
</style>
<g>
	<polygon class="st0" points="93.5,218.6 275,218.6 354.7,138.9 355.4,138.1 355.4,125 93.5,125 	"/>
	<polygon class="st0" points="402.2,433.7 46.8,433.7 46.8,78.3 402.2,78.3 402.2,91.5 449,56.6 449,31.5 0,31.5 0,480.5 449,480.5 
		449,289.2 402.2,336 	"/>
	<path class="st0" d="M229.4,274.7H93.5v28.1H214C218.6,292.9,223.9,283.3,229.4,274.7z"/>
	<path class="st0" d="M93.5,349.5v28.1h110.9c-3.3-8.8-4.3-18.3-3.6-28.1H93.5z"/>
	<path class="st0" d="M290.9,268.8c-15.5,15.5-55.6,80.8-40.1,96.3c15.5,15.5,80.8-24.6,96.3-40.1l63.8-63.8L354.7,205L290.9,268.8z
		"/>
	<path class="st0" d="M500.4,115.5c-15.5-15.5-40.6-15.5-56.1,0l-76.7,76.7l56.2,56.1l76.7-76.7C515.9,156.2,515.9,131,500.4,115.5z
		 M400.2,202.4l-9.6-9.6l53.7-53.7l9.6,9.6L400.2,202.4z"/>
</g>
</svg>
