<?xml version="1.0" encoding="utf-8"?>
<!-- Generator: Adobe Illustrator 28.1.0, SVG Export Plug-In . SVG Version: 6.00 Build 0)  -->
<svg version="1.1" id="_x32_" xmlns="http://www.w3.org/2000/svg" xmlns:xlink="http://www.w3.org/1999/xlink" x="0px" y="0px"
	 viewBox="0 0 512 512" style="enable-background:new 0 0 512 512;" xml:space="preserve">
<style type="text/css">
	.st0{fill:#D8D8D8;}
</style>
<g>
	<path class="st0" d="M341.4,265.8l168.2,146.6c1.6-5.2,2.5-10.8,2.5-16.6V117.1L341.4,265.8z"/>
	<path class="st0" d="M256,283.1c7.2,0,14.3-2.5,20.1-7.5L499.6,80.7c-10.4-13.1-26.5-21.5-44.5-21.5H56.9c-18,0-34.1,8.4-44.5,21.5
		l223.5,194.8C241.7,280.6,248.8,283.1,256,283.1z"/>
	<path class="st0" d="M0,117.1v278.8c0,5.8,0.9,11.3,2.5,16.6l168.2-146.6L0,117.1z"/>
	<path class="st0" d="M299.5,302.4c-12.4,10.8-28,16.3-43.5,16.3c-15.5,0-31.1-5.5-43.5-16.3l-14.8-12.9L23.2,441.6
		c9.4,7,21.1,11.2,33.7,11.2h398.2c12.6,0,24.3-4.2,33.7-11.2L314.3,289.4L299.5,302.4z"/>
</g>
</svg>
